<svg width="156" height="269" viewBox="0 0 156 269" fill="none" xmlns="http://www.w3.org/2000/svg">
<path fill-rule="evenodd" clip-rule="evenodd" d="M26 50C26 22.3858 48.3858 0 76 0C102.944 0 124.911 21.3129 125.961 48H71.5C65.701 48 61 52.701 61 58.5C61 64.299 65.701 69 71.5 69H126V82H71.5C65.701 82 61 86.701 61 92.5C61 98.299 65.701 103 71.5 103H126V116H70.5C64.701 116 60 120.701 60 126.5C60 132.299 64.701 137 70.5 137H125.961C124.911 163.687 102.944 185 76 185C48.3858 185 26 162.614 26 135V50ZM87.9497 217.371C126.089 212.516 155.628 180.117 155.997 140.746C155.999 140.664 156 140.582 156 140.5V140V93.5V93H155.986C155.727 88.5383 152.027 85 147.5 85C142.973 85 139.273 88.5383 139.014 93H138.848V136.489C138.848 167.609 115.327 193.237 85.0929 196.563C82.6206 196.96 80.0845 197.167 77.5002 197.167C72.6695 197.167 68.0072 196.446 63.6151 195.105C37.9978 188.66 18.8775 165.863 18 138.459V95C18 94.7446 17.9894 94.4917 17.9685 94.2417V93H17.777C16.8675 88.992 13.2832 86 9 86C4.71683 86 1.13247 88.992 0.223016 93H0V95V140C0 177.999 27.1717 209.651 63.1454 216.587C63.0497 217.211 63 217.85 63 218.5V256.5C63 263.404 68.5964 269 75.5 269C82.4036 269 88 263.404 88 256.5V218.5C88 218.12 87.983 217.743 87.9497 217.371Z" fill="#64766A"/>
</svg>
